#tb 0: 1/1000
0,          0,          0,        0,     6336, 88587de65acfc85ff56daac8ef5d12e6
0,         33,         33,        0,     6336, be41f6c788b929b5b6b27c5674f40abd
0,         66,         66,        0,     6336, 04ab3f88ca062a6911405fd84c7e9de4
0,        100,        100,        0,     6336, 231436e0a68d19d3882f285d38aca3fb
0,        133,        133,        0,     6336, 1a067e147a6740bb4ce57c4184437eea
0,        166,        166,        0,     6336, be0c47e06c7e9439570473adf4713f5f
0,        200,        200,        0,     6336, a213b0611247eafab0711748c25e88a0
0,        233,        233,        0,     6336, b1df495aa3afb74399f91c74b527b93c
0,        266,        266,        0,     6336, 46319f21069541e1ee1652621b957860
0,        300,        300,        0,     6336, 313517a5721b2b14683e7eefc83e51b1
